<!-- Generated by IcoMoon.io -->
<svg version="1.1" xmlns="http://www.w3.org/2000/svg" width="57" height="32" viewBox="0 0 57 32">
<title>Client_6</title>
<path d="M28.584 15.204c-0.267-0.355-0.395-0.776-0.364-1.199v-1.738c0-0.533 0.121-0.938 0.362-1.214s0.657-0.415 1.245-0.414c0.553 0 0.945 0.118 1.177 0.354 0.253 0.301 0.376 0.669 0.348 1.039v0.408h-0.989v-0.414c0.003-0.135-0.006-0.271-0.029-0.405-0.014-0.092-0.064-0.176-0.141-0.24-0.102-0.069-0.229-0.102-0.358-0.094-0.136-0.009-0.27 0.027-0.377 0.099-0.086 0.071-0.144 0.164-0.164 0.265-0.028 0.142-0.041 0.286-0.039 0.43v2.109c-0.016 0.204 0.028 0.407 0.127 0.592 0.049 0.063 0.117 0.112 0.197 0.144s0.168 0.043 0.255 0.033c0.127 0.009 0.252-0.025 0.35-0.095 0.081-0.069 0.132-0.159 0.147-0.256 0.023-0.14 0.033-0.281 0.031-0.423v-0.428h0.989v0.391c0.028 0.387-0.092 0.771-0.342 1.092-0.227 0.258-0.614 0.387-1.183 0.387s-0.999-0.138-1.243-0.424z"></path>
<path d="M32.702 15.221c-0.25-0.271-0.375-0.665-0.375-1.186v-1.828c0-0.516 0.125-0.907 0.375-1.172s0.667-0.397 1.253-0.396c0.581 0 0.997 0.132 1.247 0.396 0.25 0.265 0.377 0.656 0.377 1.172v1.828c0 0.516-0.127 0.912-0.381 1.184s-0.667 0.408-1.243 0.408-1.001-0.138-1.253-0.407zM34.416 14.783c0.089-0.169 0.13-0.355 0.119-0.541v-2.238c0.011-0.182-0.029-0.364-0.117-0.53-0.050-0.064-0.12-0.114-0.202-0.146s-0.172-0.042-0.261-0.031c-0.089-0.011-0.179 0-0.261 0.031s-0.153 0.082-0.203 0.145c-0.090 0.166-0.131 0.348-0.119 0.53v2.249c-0.012 0.186 0.028 0.372 0.119 0.541 0.058 0.057 0.129 0.103 0.209 0.134s0.166 0.047 0.254 0.047c0.088 0 0.174-0.016 0.254-0.047s0.151-0.077 0.209-0.134v-0.011z"></path>
<path d="M36.768 10.693h1.065l0.801 3.373 0.819-3.373h1.036l0.104 4.868h-0.766l-0.082-3.383-0.79 3.383h-0.614l-0.819-3.396-0.076 3.396h-0.774l0.096-4.868z"></path>
<path d="M41.787 10.693h1.658c0.956 0 1.433 0.461 1.433 1.382 0 0.883-0.503 1.323-1.509 1.322h-0.565v2.164h-1.024l0.006-4.868zM43.204 12.773c0.101 0.011 0.204 0.003 0.301-0.024s0.187-0.071 0.262-0.13c0.117-0.164 0.169-0.358 0.147-0.55 0.005-0.149-0.011-0.297-0.049-0.442-0.015-0.048-0.040-0.094-0.075-0.134s-0.079-0.073-0.129-0.098c-0.142-0.059-0.299-0.086-0.457-0.078h-0.397v1.455h0.397z"></path>
<path d="M46.355 10.693h1.1l1.128 4.868h-0.954l-0.223-1.122h-0.981l-0.229 1.122h-0.968l1.128-4.868zM47.295 13.874l-0.383-2.043-0.383 2.043h0.766z"></path>
<path d="M49.494 10.693h0.717l1.372 2.777v-2.777h0.85v4.868h-0.682l-1.38-2.899v2.899h-0.878l0.002-4.868z"></path>
<path d="M54.422 13.704l-1.141-3.005h0.96l0.696 1.93 0.653-1.93h0.94l-1.126 3.005v1.856h-0.983v-1.856z"></path>
<path d="M30.165 17.689v0.255h-0.835v1.978h-0.35v-1.978h-0.839v-0.255h2.025z"></path>
<path d="M32.784 19.922h-0.27c-0.027 0.001-0.054-0.006-0.076-0.021-0.020-0.013-0.036-0.031-0.045-0.051l-0.242-0.53h-1.159l-0.242 0.53c-0.007 0.022-0.019 0.043-0.037 0.060-0.021 0.015-0.048 0.022-0.076 0.021h-0.27l1.024-2.233h0.356l1.036 2.224zM31.088 19.093h0.967l-0.41-0.909c-0.030-0.069-0.056-0.139-0.076-0.21-0.014 0.042-0.027 0.083-0.039 0.118l-0.037 0.094-0.405 0.907z"></path>
<path d="M34.549 19.703c0.064 0.003 0.128 0.003 0.192 0 0.055-0.005 0.11-0.014 0.164-0.027 0.050-0.011 0.099-0.024 0.147-0.041 0.045-0.016 0.090-0.035 0.137-0.055v-0.502h-0.41c-0.010 0.001-0.020-0.001-0.030-0.004s-0.018-0.008-0.026-0.014c-0.007-0.005-0.012-0.011-0.016-0.018s-0.005-0.015-0.005-0.022v-0.171h0.794v0.856c-0.065 0.040-0.133 0.076-0.205 0.106-0.073 0.031-0.149 0.057-0.227 0.076-0.084 0.021-0.169 0.037-0.256 0.046-0.099 0.010-0.199 0.014-0.299 0.014-0.177 0.001-0.352-0.027-0.516-0.083-0.153-0.053-0.293-0.133-0.41-0.233-0.114-0.102-0.204-0.222-0.264-0.354-0.065-0.148-0.096-0.305-0.094-0.463-0.002-0.159 0.029-0.317 0.092-0.467 0.059-0.132 0.149-0.253 0.264-0.354 0.117-0.1 0.256-0.179 0.41-0.232 0.175-0.057 0.361-0.085 0.549-0.083 0.095-0 0.191 0.006 0.285 0.019 0.083 0.012 0.165 0.031 0.244 0.057 0.072 0.023 0.14 0.053 0.205 0.088 0.063 0.035 0.122 0.074 0.178 0.117l-0.098 0.138c-0.008 0.013-0.019 0.023-0.033 0.031s-0.030 0.012-0.047 0.012c-0.023-0.001-0.045-0.007-0.063-0.018-0.031-0.014-0.063-0.032-0.1-0.053-0.044-0.024-0.089-0.044-0.137-0.060-0.061-0.021-0.124-0.038-0.188-0.050-0.086-0.014-0.173-0.020-0.26-0.019-0.135-0.001-0.269 0.020-0.395 0.062-0.114 0.039-0.217 0.1-0.301 0.177-0.085 0.080-0.15 0.175-0.19 0.278-0.091 0.242-0.091 0.502 0 0.744 0.045 0.105 0.115 0.201 0.205 0.281 0.084 0.077 0.186 0.137 0.299 0.177 0.13 0.039 0.268 0.054 0.405 0.044z"></path>
<path d="M37.812 19.667h1.118v0.255h-1.46v-2.233h0.35l-0.008 1.978z"></path>
<path d="M40.093 19.922h-0.35v-2.233h0.35v2.233z"></path>
<path d="M41.396 17.7c0.021 0.010 0.039 0.024 0.053 0.041l1.497 1.683c-0.002-0.026-0.002-0.053 0-0.080 0-0.025 0-0.049 0-0.072v-1.591h0.305v2.242h-0.176c-0.026 0.002-0.052-0.002-0.076-0.012-0.021-0.011-0.040-0.026-0.055-0.042l-1.495-1.681c0 0.027 0 0.051 0 0.076s0 0.048 0 0.069v1.591h-0.293v-2.233h0.182c0.020 0 0.039 0.004 0.057 0.011z"></path>
<path d="M45.829 17.689v0.246h-1.241v0.737h1.005v0.237h-1.005v0.762h1.241v0.246h-1.601v-2.227h1.601z"></path>
<path d="M9.138 3.901l15.547 3.811v13.355l-15.547-3.809v-13.357zM8.141 2.763v15.144l17.539 4.301v-15.142l-17.54-4.303z"></path>
<path d="M17.542 29.237l-17.541-4.304v-15.142l17.541 4.303v15.144z"></path>
<path d="M8.432 3.73l15.344 3.763-6.526 5.635-15.347-3.765 6.528-5.634zM8.141 2.763l-8.141 7.028 17.541 4.303 8.139-7.028-17.539-4.303z"></path>
<path d="M18.528 28.386l7.152-6.176-7.152-1.755v7.931z"></path>
</svg>
