<!-- Generated by IcoMoon.io -->
<svg version="1.1" xmlns="http://www.w3.org/2000/svg" width="43" height="32" viewBox="0 0 43 32">
<title>mail</title>
<path d="M38.657 0.004h-34.658c-2.205 0-3.999 1.794-3.999 3.999v23.994c0 2.205 1.794 3.999 3.999 3.999h34.658c2.205 0 3.999-1.794 3.999-3.999v-23.994c0-2.205-1.794-3.999-3.999-3.999zM38.657 2.67c0.181 0 0.353 0.038 0.511 0.103l-17.84 15.462-17.84-15.462c0.158-0.066 0.33-0.103 0.511-0.103h34.658zM38.657 29.33h-34.658c-0.735 0-1.333-0.597-1.333-1.333v-22.407l17.789 15.417c0.251 0.217 0.562 0.325 0.873 0.325s0.622-0.108 0.873-0.325l17.789-15.417v22.407c0 0.736-0.597 1.333-1.333 1.333z"></path>
</svg>
