<!-- Generated by IcoMoon.io -->
<svg version="1.1" xmlns="http://www.w3.org/2000/svg" width="34" height="32" viewBox="0 0 34 32">
<title>astronaut</title>
<path fill="#2196f3" d="M33.692 3.908c-0.066-0.203-0.242-0.351-0.453-0.382l-2.013-0.293-0.901-1.824c-0.189-0.384-0.819-0.384-1.008 0l-0.901 1.824-2.013 0.293c-0.212 0.031-0.387 0.179-0.454 0.382-0.066 0.203-0.011 0.427 0.142 0.576l1.457 1.42-0.344 2.005c-0.036 0.211 0.051 0.424 0.223 0.55 0.175 0.127 0.403 0.143 0.592 0.043l1.801-0.947 1.801 0.947c0.082 0.043 0.173 0.065 0.262 0.065 0.116 0 0.233-0.036 0.33-0.107 0.173-0.126 0.26-0.339 0.223-0.55l-0.344-2.005 1.457-1.42c0.153-0.149 0.208-0.373 0.142-0.576zM31.096 5.306c-0.132 0.129-0.193 0.315-0.161 0.497l0.201 1.174-1.054-0.554c-0.082-0.043-0.172-0.065-0.262-0.065s-0.179 0.021-0.262 0.065l-1.054 0.554 0.201-1.174c0.032-0.182-0.029-0.368-0.161-0.497l-0.854-0.832 1.179-0.171c0.183-0.026 0.341-0.142 0.423-0.307l0.527-1.068 0.527 1.068c0.082 0.166 0.24 0.281 0.423 0.307l1.179 0.171-0.853 0.832z"></path>
<path fill="#2196f3" d="M27.537 20.765h-1.124v1.124h1.124v-1.124z"></path>
<path fill="#2196f3" d="M27.537 23.013h-1.124v1.124h1.124v-1.124z"></path>
<path fill="#2196f3" d="M28.661 21.889h-1.124v1.124h1.124v-1.124z"></path>
<path fill="#2196f3" d="M26.413 21.889h-1.124v1.124h1.124v-1.124z"></path>
<path fill="#2196f3" d="M23.603 26.947h-1.124v1.124h1.124v-1.124z"></path>
<path fill="#2196f3" d="M23.603 29.195h-1.124v1.124h1.124v-1.124z"></path>
<path fill="#2196f3" d="M24.727 28.071h-1.124v1.124h1.124v-1.124z"></path>
<path fill="#2196f3" d="M22.479 28.071h-1.124v1.124h1.124v-1.124z"></path>
<path fill="#2196f3" d="M16.859 24.699h-1.124v1.124h1.124v-1.124z"></path>
<path fill="#2196f3" d="M16.859 26.947h-1.124v1.124h1.124v-1.124z"></path>
<path fill="#2196f3" d="M17.983 25.823h-1.124v1.124h1.124v-1.124z"></path>
<path fill="#2196f3" d="M15.735 25.823h-1.124v1.124h1.124v-1.124z"></path>
<path fill="#2196f3" d="M6.181 5.591h-1.124v1.124h1.124v-1.124z"></path>
<path fill="#2196f3" d="M6.181 7.839h-1.124v1.124h1.124v-1.124z"></path>
<path fill="#2196f3" d="M7.305 6.715h-1.124v1.124h1.124v-1.124z"></path>
<path fill="#2196f3" d="M5.057 6.715h-1.124v1.124h1.124v-1.124z"></path>
<path fill="#212121" d="M26.042 14.061c-0.303-0.409-0.747-0.672-1.252-0.742-0.507-0.072-1.007 0.061-1.412 0.371l-1.32 1.012-2 1.493-1.431-0.57c2.551-1.145 4.335-3.697 4.335-6.66 0-4.028-3.291-7.306-7.335-7.306s-7.335 3.278-7.335 7.306c0 1.46 0.437 2.818 1.18 3.96l-2.912-0.025c-0.002 0-0.003 0-0.005 0-0.009 0-0.016 0.005-0.025 0.005-0.056 0.002-0.11 0.013-0.164 0.033-0.013 0.005-0.027 0.008-0.040 0.014-0.007 0.003-0.013 0.003-0.020 0.007l-3.407 1.682c-0.001 0-0.001 0-0.001 0.001l-1.995 0.959c-0.022 0.010-0.044 0.022-0.066 0.037-0.795 0.529-1.066 1.569-0.631 2.419 0.232 0.452 0.627 0.785 1.113 0.937 0.187 0.058 0.378 0.087 0.568 0.087 0.305 0 0.608-0.075 0.885-0.223l1.462-0.778 2.386-1.232 1.43-0.008-5.734 5.707c-0.001 0.001-0.001 0.001-0.002 0.001l-1.411 1.405c-0.333 0.332-0.516 0.772-0.516 1.241s0.183 0.91 0.516 1.242c0.342 0.341 0.792 0.511 1.243 0.511s0.9-0.171 1.244-0.511l1.385-1.379 1.834-1.37 0.949 0.945-1.856 1.848c-0.001 0.001-0.001 0.001-0.002 0.001l-1.411 1.405c-0.333 0.332-0.516 0.772-0.516 1.241s0.183 0.91 0.516 1.242c0.342 0.341 0.793 0.511 1.243 0.511s0.901-0.171 1.244-0.511l3.669-3.653c0.001-0.001 0.001-0.001 0.001-0.002l1.064-1.054-0.004-0.004c0.007-0.007 0.016-0.009 0.023-0.016l5.443-5.962 3.657 0.52c0.026 0.004 0.053 0.006 0.079 0.006 0.068 0 0.134-0.016 0.197-0.040 0.019-0.007 0.035-0.016 0.052-0.025 0.020-0.010 0.042-0.016 0.061-0.029l3.386-2.248c0.012-0.008 0.019-0.022 0.031-0.031 0.013-0.011 0.030-0.015 0.043-0.027l1.34-1.255c0.697-0.653 0.793-1.723 0.223-2.489zM2.245 17.865c-0.183 0.098-0.39 0.117-0.588 0.055-0.197-0.061-0.356-0.196-0.45-0.377-0.17-0.331-0.071-0.733 0.226-0.95l1.384-0.666 0.473 1.383-1.045 0.556zM5.93 15.939l-1.631 0.843-0.462-1.352 2.136-1.054-0.042 1.564zM21.84 8.963c0 0.968-0.231 1.88-0.631 2.697l-4.406-2.001c-0.046-0.604-0.36-1.133-0.831-1.462l1.543-5.121c2.505 0.797 4.325 3.134 4.325 5.888zM9.418 8.963c0-3.409 2.786-6.182 6.211-6.182 0.266 0 0.527 0.022 0.785 0.055l-1.509 5.009c-0.020-0.001-0.039-0.006-0.060-0.006-1.088 0-1.973 0.882-1.973 1.967s0.885 1.967 1.973 1.967c0.732 0 1.364-0.404 1.705-0.995l4.070 1.849c-1.132 1.524-2.945 2.518-4.991 2.518-3.425 0-6.211-2.773-6.211-6.182zM15.694 9.806c0 0.465-0.381 0.843-0.849 0.843s-0.849-0.378-0.849-0.843c0-0.465 0.381-0.843 0.849-0.843s0.849 0.378 0.849 0.843zM2.597 25.638c-0.249 0.247-0.652 0.246-0.9 0.001-0.12-0.12-0.185-0.278-0.185-0.446s0.066-0.325 0.185-0.444l1.014-1.010 0.897 0.893-1.010 1.006zM5.984 29.572c-0.249 0.247-0.652 0.247-0.901 0.001-0.12-0.12-0.185-0.278-0.185-0.446s0.066-0.325 0.185-0.444l1.014-1.010 0.898 0.893-1.011 1.006zM9.652 25.916c-0.001 0.001-0.001 0.001-0.002 0.001l-1.86 1.855-0.898-0.893 1.858-1.849c0 0 0 0 0-0.001s0.001-0.001 0.002-0.001c0.042-0.042 0.069-0.093 0.094-0.143 0.007-0.015 0.021-0.027 0.028-0.042 0.017-0.043 0.020-0.090 0.027-0.135 0.003-0.026 0.015-0.050 0.015-0.076 0-0.038-0.013-0.074-0.021-0.111-0.007-0.034-0.007-0.068-0.020-0.101-0.021-0.053-0.058-0.099-0.096-0.145-0.011-0.012-0.015-0.028-0.026-0.040 0 0 0 0-0.001 0s-0.001-0.002-0.001-0.002l-1.693-1.686c-0.018-0.018-0.041-0.025-0.061-0.040-0.030-0.023-0.058-0.044-0.092-0.061-0.032-0.016-0.065-0.025-0.098-0.034-0.036-0.010-0.071-0.018-0.108-0.021-0.034-0.002-0.066 0.001-0.101 0.005-0.038 0.005-0.073 0.010-0.11 0.021-0.035 0.011-0.067 0.029-0.099 0.047-0.021 0.012-0.044 0.016-0.064 0.030l-1.869 1.395-0.949-0.945 2.528-2.514 4.595 4.519-0.977 0.968zM16.837 18.523c-0.016-0.002-0.032 0.004-0.048 0.003-0.041-0.002-0.080 0.001-0.121 0.007-0.032 0.006-0.062 0.012-0.093 0.023-0.036 0.012-0.069 0.029-0.102 0.049-0.031 0.019-0.060 0.039-0.088 0.065-0.014 0.012-0.030 0.017-0.042 0.031l-4.951 5.422-4.561-4.485 2.985-2.97c0.22-0.219 0.221-0.575 0.002-0.795-0.111-0.111-0.256-0.165-0.402-0.165v-0.001l-2.338 0.014 0.029-1.694 3.271 0.028c1.333 1.363 3.192 2.214 5.249 2.214 0.461 0 0.91-0.048 1.348-0.129 0.042 0.034 0.084 0.068 0.137 0.089l2.539 1.012 0.348 1.732-3.164-0.45zM21.096 18.711l-0.33-1.642 1.524-1.138 0.998 1.324-2.192 1.456zM25.051 15.727l-0.883 0.827-0.981-1.303 0.876-0.672c0.164-0.126 0.37-0.177 0.572-0.151 0.203 0.029 0.383 0.135 0.506 0.3 0.228 0.307 0.189 0.736-0.090 0.998z"></path>
<path fill="#212121" d="M14.333 18.681l-2.258-2.248c-0.219-0.219-0.574-0.219-0.793 0l-2.258 2.248c-0.106 0.106-0.165 0.249-0.165 0.398s0.059 0.293 0.165 0.398l2.258 2.248c0.11 0.109 0.254 0.164 0.397 0.164s0.287-0.055 0.396-0.164l2.258-2.248c0.106-0.106 0.166-0.249 0.166-0.398s-0.060-0.293-0.166-0.398zM11.678 20.534l-1.461-1.455 1.461-1.455 1.462 1.455-1.462 1.455z"></path>
<path fill="#212121" d="M18.086 4.484l-0.271 1.091c0.075 0.019 1.831 0.476 1.831 2.264h1.124c-0-2.125-1.755-3.125-2.684-3.356z"></path>
<path fill="#212121" d="M20.77 8.963h-1.124v1.124h1.124v-1.124z"></path>
</svg>
