<!-- Generated by IcoMoon.io -->
<svg version="1.1" xmlns="http://www.w3.org/2000/svg" width="34" height="32" viewBox="0 0 34 32">
<title>client-3</title>
<path d="M5.482 31.394c0.012 0 0.025 0.003 0.036 0.007s0.021 0.011 0.030 0.019l0.17 0.162c-0.132 0.131-0.294 0.236-0.477 0.308-0.214 0.078-0.444 0.116-0.676 0.11-0.218 0.004-0.434-0.031-0.636-0.103-0.182-0.066-0.345-0.165-0.479-0.291-0.137-0.13-0.242-0.283-0.309-0.449-0.074-0.185-0.111-0.38-0.108-0.576-0.003-0.197 0.037-0.393 0.117-0.578 0.074-0.167 0.186-0.32 0.328-0.449 0.145-0.127 0.318-0.226 0.508-0.293 0.209-0.070 0.431-0.105 0.655-0.103 0.208-0.004 0.415 0.027 0.608 0.094 0.168 0.063 0.322 0.151 0.455 0.26l-0.142 0.173c-0.010 0.012-0.022 0.023-0.036 0.031-0.017 0.010-0.037 0.015-0.057 0.013-0.022-0.001-0.043-0.008-0.061-0.018l-0.076-0.046-0.106-0.059c-0.046-0.022-0.093-0.041-0.142-0.057-0.063-0.020-0.127-0.035-0.193-0.046-0.083-0.013-0.168-0.020-0.252-0.018-0.161-0.002-0.321 0.024-0.47 0.077-0.139 0.049-0.265 0.123-0.369 0.217-0.106 0.1-0.187 0.218-0.239 0.346-0.060 0.147-0.089 0.301-0.087 0.457-0.003 0.158 0.027 0.315 0.087 0.464 0.052 0.127 0.132 0.244 0.235 0.344 0.097 0.093 0.217 0.167 0.352 0.214 0.138 0.050 0.287 0.075 0.436 0.074 0.086 0.001 0.173-0.004 0.258-0.015 0.14-0.015 0.274-0.057 0.392-0.123 0.059-0.034 0.115-0.072 0.167-0.114 0.022-0.018 0.050-0.029 0.080-0.029z"></path>
<path d="M10.376 30.58c0.003 0.195-0.036 0.389-0.114 0.573-0.069 0.166-0.178 0.318-0.319 0.444s-0.312 0.226-0.501 0.292c-0.415 0.137-0.873 0.137-1.288 0-0.188-0.066-0.357-0.166-0.498-0.293-0.141-0.129-0.251-0.282-0.322-0.449-0.153-0.371-0.153-0.776 0-1.147 0.072-0.167 0.182-0.321 0.322-0.451 0.142-0.123 0.311-0.218 0.498-0.282 0.414-0.14 0.874-0.14 1.288 0 0.188 0.066 0.358 0.166 0.5 0.293 0.139 0.128 0.248 0.279 0.32 0.444 0.078 0.184 0.117 0.38 0.114 0.576zM9.931 30.58c0.003-0.156-0.024-0.312-0.081-0.46-0.047-0.127-0.125-0.244-0.227-0.344-0.099-0.095-0.222-0.169-0.358-0.217-0.301-0.101-0.635-0.101-0.936 0-0.136 0.048-0.259 0.123-0.358 0.217-0.103 0.099-0.181 0.217-0.229 0.344-0.108 0.3-0.108 0.621 0 0.921 0.048 0.127 0.126 0.245 0.229 0.344 0.099 0.094 0.222 0.168 0.358 0.215 0.302 0.098 0.634 0.098 0.936 0 0.136-0.048 0.259-0.121 0.358-0.215 0.102-0.1 0.179-0.217 0.227-0.344 0.057-0.148 0.084-0.304 0.081-0.46z"></path>
<path d="M13.715 31.062l0.044 0.103c0.017-0.037 0.032-0.070 0.049-0.103 0.016-0.035 0.035-0.068 0.055-0.101l1.083-1.71c0.021-0.029 0.040-0.048 0.061-0.053 0.029-0.008 0.059-0.011 0.089-0.009h0.32v2.781h-0.379v-2.045c0-0.026 0-0.055 0-0.087-0.002-0.032-0.002-0.064 0-0.096l-1.089 1.734c-0.014 0.026-0.036 0.048-0.064 0.063s-0.060 0.023-0.093 0.023h-0.061c-0.033 0-0.065-0.008-0.093-0.023s-0.050-0.037-0.063-0.064l-1.121-1.745c0 0.033 0 0.066 0 0.099s0 0.063 0 0.088v2.045h-0.367v-2.776h0.32c0.030-0.002 0.060 0.002 0.089 0.009 0.026 0.011 0.047 0.030 0.059 0.053l1.106 1.712c0.022 0.032 0.040 0.065 0.055 0.099z"></path>
<path d="M17.789 30.924v1.042h-0.424v-2.777h0.945c0.178-0.003 0.356 0.017 0.528 0.061 0.137 0.034 0.264 0.093 0.373 0.173 0.094 0.075 0.167 0.168 0.212 0.272 0.050 0.113 0.074 0.234 0.072 0.355 0.002 0.122-0.025 0.243-0.078 0.355-0.051 0.107-0.129 0.202-0.229 0.278-0.109 0.084-0.236 0.146-0.375 0.184-0.165 0.046-0.337 0.068-0.511 0.064l-0.513-0.007zM17.789 30.626h0.513c0.111 0.001 0.222-0.013 0.328-0.042 0.088-0.026 0.168-0.066 0.237-0.12 0.064-0.051 0.113-0.114 0.144-0.184 0.035-0.074 0.052-0.154 0.051-0.234 0.005-0.077-0.010-0.154-0.043-0.226s-0.084-0.137-0.148-0.19c-0.162-0.11-0.365-0.163-0.57-0.149h-0.513v1.145z"></path>
<path d="M23.484 31.97h-0.335c-0.034 0.001-0.067-0.008-0.093-0.026-0.024-0.017-0.043-0.039-0.055-0.064l-0.288-0.672h-1.447l-0.299 0.672c-0.011 0.025-0.029 0.046-0.053 0.063-0.027 0.019-0.061 0.029-0.095 0.028h-0.335l1.271-2.782h0.441l1.288 2.782zM21.386 30.937h1.195l-0.504-1.132c-0.039-0.085-0.070-0.173-0.095-0.261l-0.049 0.145c-0.015 0.044-0.032 0.085-0.047 0.118l-0.5 1.13z"></path>
<path d="M25.314 29.201c0.025 0.012 0.047 0.029 0.064 0.050l1.854 2.097c0-0.033 0-0.066 0-0.098s0-0.063 0-0.092v-1.97h0.379v2.781h-0.212c-0.030 0.001-0.060-0.005-0.087-0.017-0.026-0.013-0.049-0.031-0.068-0.052l-1.852-2.095c0.002 0.032 0.002 0.064 0 0.096 0 0.031 0 0.059 0 0.085v1.983h-0.379v-2.781h0.225c0.026-0.001 0.052 0.004 0.076 0.013z"></path>
<path d="M30.734 30.863v1.105h-0.424v-1.105l-1.172-1.675h0.379c0.033-0.002 0.065 0.007 0.091 0.024 0.023 0.018 0.042 0.039 0.057 0.063l0.733 1.081c0.030 0.046 0.055 0.088 0.076 0.129s0.038 0.079 0.053 0.118l0.055-0.12c0.021-0.044 0.045-0.086 0.072-0.127l0.723-1.088c0.015-0.022 0.034-0.041 0.055-0.059 0.025-0.019 0.058-0.029 0.091-0.028h0.383l-1.174 1.682z"></path>
<path d="M13.505 24.521c0.184 0.020 0.371 0.037 0.559 0.052 2.859-1.111 5.277-2.93 6.953-5.228s2.534-4.975 2.469-7.696l-3.15-2.737c0.64 2.896 0.341 5.89-0.865 8.647s-3.272 5.168-5.965 6.962z"></path>
<path d="M12.38 24.393l0.085 0.015c2.878-1.789 5.072-4.286 6.299-7.17s1.429-6.021 0.582-9.006l-4.487-3.899c1.815 3.205 2.546 6.791 2.107 10.342s-2.029 6.921-4.585 9.718z"></path>
<path d="M27.598 14.862c-0.762 2.989-2.614 5.685-5.28 7.687-0.779 0.588-1.618 1.112-2.508 1.565 2.171-0.554 4.166-1.534 5.832-2.864s2.958-2.975 3.776-4.808l-1.82-1.579z"></path>
<path d="M26.884 14.422l-2.591-2.251c-0.050 2.567-0.889 5.075-2.432 7.264s-3.732 3.98-6.341 5.185h0.013c0.581-0 1.162-0.030 1.739-0.090 2.438-0.865 4.592-2.24 6.269-4.004s2.826-3.861 3.343-6.104z"></path>
<path d="M12.755 2.689l-3.091-2.689c-2.763 0.928-5.14 2.559-6.819 4.679s-2.582 4.632-2.59 7.206v0c0.010 2.844 1.112 5.604 3.131 7.843s4.839 3.829 8.015 4.518c2.835-3.001 4.495-6.709 4.738-10.586s-0.942-7.72-3.385-10.971z"></path>
<path d="M34.026 14.008c-0.011-3.374-1.559-6.608-4.305-8.994s-6.468-3.731-10.351-3.74c-1.795-0.002-3.574 0.286-5.248 0.849l18.925 16.443c0.648-1.453 0.98-2.999 0.979-4.558z"></path>
</svg>
