<!-- Generated by IcoMoon.io -->
<svg version="1.1" xmlns="http://www.w3.org/2000/svg" width="36" height="32" viewBox="0 0 36 32">
<title>diagram</title>
<path fill="#2196f3" d="M16.631 14.825h1.188v5.346h-1.188v-5.346z"></path>
<path fill="#2196f3" d="M21.383 17.2h1.188v2.97h-1.188v-2.97z"></path>
<path fill="#2196f3" d="M11.879 18.982h1.188v1.188h-1.188v-1.188z"></path>
<path fill="#2196f3" d="M8.315 18.388h1.188v1.782h-1.188v-1.782z"></path>
<path fill="#212121" d="M1.782 29.674h28.511c0.984 0 1.782-0.798 1.782-1.782v-2.376c0-0.984-0.798-1.782-1.782-1.782h-0.594v-14.812l3.374-3.196c0.783 0.386 1.731 0.152 2.243-0.556s0.441-1.681-0.17-2.305-1.582-0.717-2.301-0.22c-0.718 0.497-0.973 1.439-0.604 2.231l-2.542 2.41v-1.37c0-0.984-0.798-1.782-1.782-1.782h-23.759c-0.984 0-1.782 0.798-1.782 1.782v17.819h-0.594c-0.984 0-1.782 0.798-1.782 1.782v2.376c0 0.984 0.798 1.782 1.782 1.782zM33.856 3.539c0.328 0 0.594 0.266 0.594 0.594s-0.266 0.594-0.594 0.594c-0.328 0-0.594-0.266-0.594-0.594s0.266-0.594 0.594-0.594zM3.563 5.915c0-0.328 0.266-0.594 0.594-0.594h23.759c0.328 0 0.594 0.266 0.594 0.594v2.494l-1.188 1.129v-2.435c0-0.328-0.266-0.594-0.594-0.594h-21.383c-0.328 0-0.594 0.266-0.594 0.594v14.849c0 0.328 0.266 0.594 0.594 0.594h21.383c0.328 0 0.594-0.266 0.594-0.594v-10.78l1.188-1.126v13.687h-24.947v-17.819zM8.909 13.637c-0.804-0.002-1.509 0.533-1.723 1.308s0.117 1.596 0.808 2.006c0.691 0.41 1.571 0.307 2.148-0.252l2.065 1.036c0.24 0.12 0.531 0.064 0.709-0.137l4.389-4.938 4.314 3.233c0.231 0.173 0.555 0.155 0.765-0.044l3.75-3.552v9.060h-20.195v-13.661h20.195v2.964l-4.202 3.98-4.351-3.262c-0.247-0.185-0.595-0.15-0.8 0.080l-4.449 5.006-1.663-0.832c0.012-0.071 0.020-0.143 0.023-0.215 0-0.984-0.798-1.782-1.782-1.782zM9.503 15.418c0 0.328-0.266 0.594-0.594 0.594s-0.594-0.266-0.594-0.594c0-0.328 0.266-0.594 0.594-0.594s0.594 0.266 0.594 0.594zM13.067 24.922h5.94v0.594c0 0.328-0.266 0.594-0.594 0.594h-4.752c-0.328 0-0.594-0.266-0.594-0.594v-0.594zM1.188 25.516c0-0.328 0.266-0.594 0.594-0.594h10.097v0.594c0 0.984 0.798 1.782 1.782 1.782h4.752c0.984 0 1.782-0.798 1.782-1.782v-0.594h10.097c0.328 0 0.594 0.266 0.594 0.594v2.376c0 0.328-0.266 0.594-0.594 0.594h-28.511c-0.328 0-0.594-0.266-0.594-0.594v-2.376z"></path>
</svg>
